<?xml version="1.0" encoding="UTF-8"?>
<svg id="Layer_1" data-name="Layer 1" xmlns="http://www.w3.org/2000/svg" version="1.1" viewBox="0 0 174 26">
  <defs>
    <style>
      .cls-1 {
        fill: #615dff;
      }

      .cls-1, .cls-2 {
        stroke-width: 0px;
      }

      .cls-3 {
        font-family: Poppins-Regular, Poppins;
        font-size: 6.1px;
      }

      .cls-3, .cls-4 {
        fill: #11142d;
      }

      .cls-3, .cls-4, .cls-5 {
        isolation: isolate;
      }

      .cls-4 {
        font-family: Poppins-Bold, Poppins;
        font-size: 11.5px;
        font-weight: 700;
      }

      .cls-6 {
        mix-blend-mode: multiply;
      }

      .cls-2 {
        fill: #3dd9eb;
      }
    </style>
  </defs>
  <g class="cls-5">
    <g id="Layer_1-2" data-name="Layer 1-2">
      <path class="cls-1" d="M20.1,26c2.8,0,5-2.3,4.5-5-.3-1.7-.8-3.4-1.4-5-1.3-3.2-3.1-6-5.4-8.4-2.3-2.4-5.1-4.3-8.2-5.6-1.5-.6-3.1-1.1-4.7-1.5C2.3,0,0,2.2,0,5v16c0,2.8,2.2,5,5,5h15.1Z"/>
      <g class="cls-6">
        <path class="cls-2" d="M13.7,26c-2.8,0-5-2.3-4.5-5,.3-1.7.8-3.4,1.4-5,1.3-3.2,3.1-6,5.4-8.4,2.3-2.4,5.1-4.3,8.2-5.6,1.5-.6,3.1-1.1,4.7-1.5,2.7-.6,5,1.7,5,4.5v16c0,2.8-2.2,5-5,5h-15.2Z"/>
      </g>
      <g class="cls-5">
        <text class="cls-4" transform="translate(38.1 13.2)"><tspan x="0" y="0">PUSKESMAS NGAGLIK 1</tspan></text>
      </g>
      <g class="cls-5">
        <text class="cls-3" transform="translate(38.1 21)"><tspan x="0" y="0">SISTEM MONITORING &amp; PREDIKSI HIPERTENSI</tspan></text>
      </g>
    </g>
  </g>
</svg>